<svg xmlns="http://www.w3.org/2000/svg" viewBox="-1 -1 34 34"><defs><linearGradient id="bic-g-slate" x1="0" y1="0" x2="0" y2="1"><stop offset="0" stop-color="#E0E6F0"/><stop offset="1" stop-color="#93A0B8"/></linearGradient><linearGradient id="bic-g-white" x1="0" y1="0" x2="0" y2="1"><stop offset="0" stop-color="#FFFFFF"/><stop offset="1" stop-color="#E3EBF7"/></linearGradient><filter id="shadow" x="-20%" y="-20%" width="140%" height="150%"><feDropShadow dx="0" dy="0.7" stdDeviation="0.55" flood-color="#14285A" flood-opacity="0.3"/></filter></defs><g filter="url(#shadow)"><path d="M25.06 13.09 L28.26 13.75 L28.26 17.45 L25.06 18.11 L24.18 20.23 L25.98 22.96 L23.36 25.58 L20.63 23.78 L18.51 24.66 L17.85 27.86 L14.15 27.86 L13.49 24.66 L11.37 23.78 L8.64 25.58 L6.02 22.96 L7.82 20.23 L6.94 18.11 L3.74 17.45 L3.74 13.75 L6.94 13.09 L7.82 10.97 L6.02 8.24 L8.64 5.62 L11.37 7.42 L13.49 6.54 L14.15 3.34 L17.85 3.34 L18.51 6.54 L20.63 7.42 L23.36 5.62 L25.98 8.24 L24.18 10.97 Z" fill="#606D88" stroke="#606D88" stroke-width="2.2" stroke-linejoin="round" stroke-linecap="round" transform="translate(0 1.7)"/><path d="M25.06 13.09 L28.26 13.75 L28.26 17.45 L25.06 18.11 L24.18 20.23 L25.98 22.96 L23.36 25.58 L20.63 23.78 L18.51 24.66 L17.85 27.86 L14.15 27.86 L13.49 24.66 L11.37 23.78 L8.64 25.58 L6.02 22.96 L7.82 20.23 L6.94 18.11 L3.74 17.45 L3.74 13.75 L6.94 13.09 L7.82 10.97 L6.02 8.24 L8.64 5.62 L11.37 7.42 L13.49 6.54 L14.15 3.34 L17.85 3.34 L18.51 6.54 L20.63 7.42 L23.36 5.62 L25.98 8.24 L24.18 10.97 Z" fill="url(#bic-g-slate)" stroke="url(#bic-g-slate)" stroke-width="2.2" stroke-linejoin="round" stroke-linecap="round"/><circle cx="16" cy="15.6" r="5.2" fill="url(#bic-g-white)"/><circle cx="16" cy="15.6" r="2.7" fill="#39435A"/><ellipse cx="10.6" cy="9.6" rx="1.9" ry="1" fill="#fff" opacity="0.7" transform="rotate(-40 10.6 9.6)"/></g></svg>
